<svg width="22" height="24" viewBox="0 0 22 24" fill="none" xmlns="http://www.w3.org/2000/svg">
<path d="M17.875 2H16.5V0.5C16.5 0.224 16.2947 0 16.0417 0C15.7887 0 15.5833 0.224 15.5833 0.5V2H6.41667V0.5C6.41667 0.224 6.21133 0 5.95833 0C5.70533 0 5.5 0.224 5.5 0.5V2H4.125C1.85075 2 0 4.019 0 6.5V19.5C0 21.981 1.85075 24 4.125 24H17.875C20.1493 24 22 21.981 22 19.5V6.5C22 4.019 20.1493 2 17.875 2ZM4.125 3H17.875C19.6442 3 21.0833 4.57 21.0833 6.5V8H0.916667V6.5C0.916667 4.57 2.35583 3 4.125 3ZM17.875 23H4.125C2.35583 23 0.916667 21.43 0.916667 19.5V9H21.0833V19.5C21.0833 21.43 19.6442 23 17.875 23ZM17.4167 13.5C17.4167 13.776 17.2113 14 16.9583 14H5.04167C4.78867 14 4.58333 13.776 4.58333 13.5C4.58333 13.224 4.78867 13 5.04167 13H16.9583C17.2113 13 17.4167 13.224 17.4167 13.5ZM11 18.5C11 18.776 10.7947 19 10.5417 19H5.04167C4.78867 19 4.58333 18.776 4.58333 18.5C4.58333 18.224 4.78867 18 5.04167 18H10.5417C10.7947 18 11 18.224 11 18.5Z" fill="#414141"/>
</svg>
