<svg width="100" height="100" viewBox="0 0 100 100" fill="none" xmlns="http://www.w3.org/2000/svg">
<rect width="100" height="100" rx="50" fill="#F2F6FF"/>
<path d="M75.6673 69.6899C75.6673 43.9719 68.5063 28.1589 68.2006 27.4985C68.0746 27.2279 67.8506 27.0155 67.5753 26.9035C67.3163 26.8009 61.105 24.3672 49.9703 24.3672C38.8357 24.3672 32.6243 26.8009 32.3653 26.9035C32.0807 27.0389 31.8637 27.2559 31.7213 27.5382C31.649 27.7155 24.334 45.6029 24.334 71.2952C24.334 71.8505 24.726 72.3288 25.2697 72.4385C25.3723 72.4595 27.8223 72.9425 32.398 73.3042C33.0303 73.3555 33.602 72.8772 33.651 72.2355C33.7 71.5939 33.224 71.0338 32.5823 70.9825C29.759 70.7585 27.7523 70.4855 26.6673 70.3152C26.784 54.3762 29.724 41.6572 31.8123 34.5802C32.8973 56.6232 39.0177 71.2182 39.0877 71.3769C39.2393 71.7292 39.5543 71.9858 39.93 72.0605C40.1843 72.1119 46.3023 73.3089 57.3297 73.3089C68.4666 73.3089 74.6967 70.9148 74.9347 70.7725C75.6277 70.3595 75.6627 69.8019 75.6673 69.6899ZM40.9963 69.8788C39.7713 66.7359 34.1153 51.0069 33.9753 28.8099C35.8863 28.1985 41.449 26.6959 49.9703 26.6959C58.9957 26.6959 64.71 28.3829 66.2757 28.9125C67.4073 31.6005 73.1823 46.4452 73.3246 68.8639C71.4113 69.4752 65.851 70.9779 57.3297 70.9779C48.4956 70.9779 42.7953 70.1752 40.9987 69.8812L40.9963 69.8788ZM66.2826 58.1585C66.2826 58.8025 65.7623 59.3229 65.1183 59.3229H46.475C45.831 59.3229 45.3106 58.8025 45.3106 58.1585C45.3106 57.5145 45.831 56.9942 46.475 56.9942H65.1183C65.7623 56.9942 66.2826 57.5145 66.2826 58.1585ZM63.2353 50.0012H44.592C43.948 50.0012 43.4276 49.4809 43.4276 48.8369C43.4276 48.1929 43.948 47.6725 44.592 47.6725H63.2353C63.8793 47.6725 64.3996 48.1929 64.3996 48.8369C64.3996 49.4809 63.8793 50.0012 63.2353 50.0012ZM61.623 40.6795H42.9797C42.3357 40.6795 41.8153 40.1592 41.8153 39.5152C41.8153 38.8712 42.3357 38.3509 42.9797 38.3509H61.623C62.267 38.3509 62.7873 38.8712 62.7873 39.5152C62.7873 40.1592 62.267 40.6795 61.623 40.6795Z" fill="#155DFC"/>
</svg>
