<svg width="239" height="136" viewBox="0 0 239 136" fill="none" xmlns="http://www.w3.org/2000/svg">
<rect x="69.5" width="100" height="100" rx="50" fill="#F2F6FF"/>
<path d="M140.936 33.61L112.149 62.2494C111.956 62.4428 111.726 62.5962 111.472 62.7008C111.219 62.8055 110.947 62.8594 110.673 62.8594C110.399 62.8594 110.127 62.8055 109.874 62.7008C109.621 62.5962 109.391 62.4428 109.197 62.2494L98.0649 51.163C97.8713 50.9697 97.6413 50.8163 97.388 50.7116C97.1348 50.6069 96.8632 50.553 96.589 50.553C96.3147 50.553 96.0432 50.6069 95.7899 50.7116C95.5366 50.8163 95.3066 50.9697 95.113 51.163C94.9187 51.3556 94.7646 51.5844 94.6594 51.8364C94.5542 52.0884 94.5 52.3586 94.5 52.6314C94.5 52.9043 94.5542 53.1745 94.6594 53.4265C94.7646 53.6785 94.9187 53.9073 95.113 54.0999L106.25 65.1781C107.424 66.3447 109.016 67 110.676 67C112.336 67 113.928 66.3447 115.103 65.1781L143.888 36.5448C144.082 36.3523 144.236 36.1235 144.341 35.8717C144.446 35.6199 144.5 35.35 144.5 35.0774C144.5 34.8047 144.446 34.5348 144.341 34.283C144.236 34.0312 144.082 33.8025 143.888 33.61C143.694 33.4166 143.464 33.2632 143.211 33.1586C142.958 33.0539 142.686 33 142.412 33C142.138 33 141.866 33.0539 141.613 33.1586C141.36 33.2632 141.13 33.4166 140.936 33.61Z" fill="#155DFC"/>
<path d="M25.3134 126.178H19.9074L18.8704 129H17.6124L21.9474 117.27H23.2904L27.6084 129H26.3504L25.3134 126.178ZM24.9564 125.192L22.6104 118.766L20.2644 125.192H24.9564ZM30.6912 121.758C30.9859 121.135 31.4505 120.619 32.0852 120.211C32.7312 119.792 33.4962 119.582 34.3802 119.582C35.2189 119.582 35.9725 119.78 36.6412 120.177C37.3212 120.562 37.8482 121.118 38.2222 121.843C38.6075 122.557 38.8002 123.39 38.8002 124.342C38.8002 125.294 38.6075 126.133 38.2222 126.858C37.8482 127.583 37.3212 128.144 36.6412 128.541C35.9725 128.938 35.2189 129.136 34.3802 129.136C33.5075 129.136 32.7482 128.932 32.1022 128.524C31.4562 128.105 30.9859 127.583 30.6912 126.96V133.386H29.5182V119.718H30.6912V121.758ZM37.5932 124.342C37.5932 123.571 37.4402 122.908 37.1342 122.353C36.8395 121.786 36.4315 121.356 35.9102 121.061C35.3889 120.766 34.7995 120.619 34.1422 120.619C33.5075 120.619 32.9239 120.772 32.3912 121.078C31.8699 121.384 31.4562 121.82 31.1502 122.387C30.8442 122.954 30.6912 123.611 30.6912 124.359C30.6912 125.107 30.8442 125.764 31.1502 126.331C31.4562 126.898 31.8699 127.334 32.3912 127.64C32.9239 127.946 33.5075 128.099 34.1422 128.099C34.7995 128.099 35.3889 127.952 35.9102 127.657C36.4315 127.351 36.8395 126.915 37.1342 126.348C37.4402 125.77 37.5932 125.101 37.5932 124.342ZM42.1629 121.758C42.4575 121.135 42.9222 120.619 43.5569 120.211C44.2029 119.792 44.9679 119.582 45.8519 119.582C46.6905 119.582 47.4442 119.78 48.1129 120.177C48.7929 120.562 49.3199 121.118 49.6939 121.843C50.0792 122.557 50.2719 123.39 50.2719 124.342C50.2719 125.294 50.0792 126.133 49.6939 126.858C49.3199 127.583 48.7929 128.144 48.1129 128.541C47.4442 128.938 46.6905 129.136 45.8519 129.136C44.9792 129.136 44.2199 128.932 43.5739 128.524C42.9279 128.105 42.4575 127.583 42.1629 126.96V133.386H40.9899V119.718H42.1629V121.758ZM49.0649 124.342C49.0649 123.571 48.9119 122.908 48.6059 122.353C48.3112 121.786 47.9032 121.356 47.3819 121.061C46.8605 120.766 46.2712 120.619 45.6139 120.619C44.9792 120.619 44.3955 120.772 43.8629 121.078C43.3415 121.384 42.9279 121.82 42.6219 122.387C42.3159 122.954 42.1629 123.611 42.1629 124.359C42.1629 125.107 42.3159 125.764 42.6219 126.331C42.9279 126.898 43.3415 127.334 43.8629 127.64C44.3955 127.946 44.9792 128.099 45.6139 128.099C46.2712 128.099 46.8605 127.952 47.3819 127.657C47.9032 127.351 48.3112 126.915 48.6059 126.348C48.9119 125.77 49.0649 125.101 49.0649 124.342ZM56.5246 129.136C55.6519 129.136 54.8642 128.943 54.1616 128.558C53.4702 128.161 52.9206 127.606 52.5126 126.892C52.1159 126.167 51.9176 125.322 51.9176 124.359C51.9176 123.396 52.1216 122.557 52.5296 121.843C52.9376 121.118 53.4929 120.562 54.1956 120.177C54.8982 119.78 55.6859 119.582 56.5586 119.582C57.4312 119.582 58.2189 119.78 58.9216 120.177C59.6356 120.562 60.1909 121.118 60.5876 121.843C60.9956 122.557 61.1996 123.396 61.1996 124.359C61.1996 125.311 60.9956 126.15 60.5876 126.875C60.1796 127.6 59.6186 128.161 58.9046 128.558C58.1906 128.943 57.3972 129.136 56.5246 129.136ZM56.5246 128.099C57.1366 128.099 57.7032 127.963 58.2246 127.691C58.7459 127.408 59.1652 126.988 59.4826 126.433C59.8112 125.866 59.9756 125.175 59.9756 124.359C59.9756 123.543 59.8169 122.857 59.4996 122.302C59.1822 121.735 58.7629 121.316 58.2416 121.044C57.7202 120.761 57.1536 120.619 56.5416 120.619C55.9296 120.619 55.3629 120.761 54.8416 121.044C54.3202 121.316 53.9009 121.735 53.5836 122.302C53.2776 122.857 53.1246 123.543 53.1246 124.359C53.1246 125.175 53.2776 125.866 53.5836 126.433C53.9009 126.988 54.3146 127.408 54.8246 127.691C55.3459 127.963 55.9126 128.099 56.5246 128.099ZM63.9638 117.967C63.7258 117.967 63.5218 117.882 63.3518 117.712C63.1818 117.542 63.0968 117.332 63.0968 117.083C63.0968 116.834 63.1818 116.63 63.3518 116.471C63.5218 116.301 63.7258 116.216 63.9638 116.216C64.2018 116.216 64.4058 116.301 64.5758 116.471C64.7458 116.63 64.8308 116.834 64.8308 117.083C64.8308 117.332 64.7458 117.542 64.5758 117.712C64.4058 117.882 64.2018 117.967 63.9638 117.967ZM64.5588 119.718V129H63.3688V119.718H64.5588ZM71.6056 119.548C72.7162 119.548 73.6229 119.894 74.3256 120.585C75.0282 121.265 75.3796 122.257 75.3796 123.56V129H74.2066V123.696C74.2066 122.687 73.9516 121.917 73.4416 121.384C72.9429 120.851 72.2572 120.585 71.3846 120.585C70.4892 120.585 69.7752 120.868 69.2426 121.435C68.7099 122.002 68.4436 122.835 68.4436 123.934V129H67.2536V119.718H68.4436V121.299C68.7382 120.732 69.1632 120.302 69.7186 120.007C70.2739 119.701 70.9029 119.548 71.6056 119.548ZM79.5584 120.721V126.484C79.5584 127.051 79.666 127.442 79.8814 127.657C80.0967 127.872 80.4764 127.98 81.0204 127.98H82.1084V129H80.8334C79.9947 129 79.3714 128.807 78.9634 128.422C78.5554 128.025 78.3514 127.379 78.3514 126.484V120.721H77.0594V119.718H78.3514V117.389H79.5584V119.718H82.1084V120.721H79.5584ZM95.1209 119.548C96.2089 119.548 97.0929 119.894 97.7729 120.585C98.4643 121.265 98.8099 122.257 98.8099 123.56V129H97.6369V123.696C97.6369 122.687 97.3933 121.917 96.9059 121.384C96.4186 120.851 95.7556 120.585 94.9169 120.585C94.0443 120.585 93.3473 120.874 92.8259 121.452C92.3046 122.03 92.0439 122.869 92.0439 123.968V129H90.8709V123.696C90.8709 122.687 90.6273 121.917 90.1399 121.384C89.6526 120.851 88.9839 120.585 88.1339 120.585C87.2613 120.585 86.5643 120.874 86.0429 121.452C85.5216 122.03 85.2609 122.869 85.2609 123.968V129H84.0709V119.718H85.2609V121.316C85.5556 120.738 85.9749 120.302 86.5189 120.007C87.0629 119.701 87.6693 119.548 88.3379 119.548C89.1426 119.548 89.8453 119.741 90.4459 120.126C91.0579 120.511 91.4999 121.078 91.7719 121.826C92.0213 121.089 92.4463 120.528 93.0469 120.143C93.6589 119.746 94.3503 119.548 95.1209 119.548ZM109.851 123.883C109.851 124.291 109.839 124.603 109.817 124.818H102.116C102.15 125.521 102.32 126.121 102.626 126.62C102.932 127.119 103.334 127.498 103.833 127.759C104.331 128.008 104.875 128.133 105.465 128.133C106.235 128.133 106.881 127.946 107.403 127.572C107.935 127.198 108.287 126.694 108.457 126.059H109.715C109.488 126.966 109.001 127.708 108.253 128.286C107.516 128.853 106.587 129.136 105.465 129.136C104.592 129.136 103.81 128.943 103.119 128.558C102.427 128.161 101.883 127.606 101.487 126.892C101.101 126.167 100.909 125.322 100.909 124.359C100.909 123.396 101.101 122.551 101.487 121.826C101.872 121.101 102.41 120.545 103.102 120.16C103.793 119.775 104.581 119.582 105.465 119.582C106.349 119.582 107.119 119.775 107.777 120.16C108.445 120.545 108.955 121.067 109.307 121.724C109.669 122.37 109.851 123.09 109.851 123.883ZM108.644 123.849C108.655 123.158 108.513 122.568 108.219 122.081C107.935 121.594 107.544 121.225 107.046 120.976C106.547 120.727 106.003 120.602 105.414 120.602C104.53 120.602 103.776 120.885 103.153 121.452C102.529 122.019 102.184 122.818 102.116 123.849H108.644ZM116.38 119.548C117.491 119.548 118.397 119.894 119.1 120.585C119.803 121.265 120.154 122.257 120.154 123.56V129H118.981V123.696C118.981 122.687 118.726 121.917 118.216 121.384C117.717 120.851 117.032 120.585 116.159 120.585C115.264 120.585 114.55 120.868 114.017 121.435C113.484 122.002 113.218 122.835 113.218 123.934V129H112.028V119.718H113.218V121.299C113.513 120.732 113.938 120.302 114.493 120.007C115.048 119.701 115.677 119.548 116.38 119.548ZM124.333 120.721V126.484C124.333 127.051 124.44 127.442 124.656 127.657C124.871 127.872 125.251 127.98 125.795 127.98H126.883V129H125.608C124.769 129 124.146 128.807 123.738 128.422C123.33 128.025 123.126 127.379 123.126 126.484V120.721H121.834V119.718H123.126V117.389H124.333V119.718H126.883V120.721H124.333ZM132.966 123.05C132.966 121.883 133.221 120.84 133.731 119.922C134.241 118.993 134.938 118.273 135.822 117.763C136.706 117.242 137.692 116.981 138.78 116.981C140.106 116.981 141.24 117.298 142.18 117.933C143.132 118.556 143.824 119.44 144.254 120.585H142.86C142.52 119.78 141.999 119.151 141.296 118.698C140.605 118.245 139.766 118.018 138.78 118.018C137.908 118.018 137.12 118.222 136.417 118.63C135.726 119.038 135.182 119.627 134.785 120.398C134.389 121.157 134.19 122.041 134.19 123.05C134.19 124.059 134.389 124.943 134.785 125.702C135.182 126.461 135.726 127.045 136.417 127.453C137.12 127.861 137.908 128.065 138.78 128.065C139.766 128.065 140.605 127.844 141.296 127.402C141.999 126.949 142.52 126.325 142.86 125.532H144.254C143.824 126.665 143.132 127.544 142.18 128.167C141.228 128.79 140.095 129.102 138.78 129.102C137.692 129.102 136.706 128.847 135.822 128.337C134.938 127.816 134.241 127.096 133.731 126.178C133.221 125.26 132.966 124.217 132.966 123.05ZM150.689 129.136C149.816 129.136 149.028 128.943 148.326 128.558C147.634 128.161 147.085 127.606 146.677 126.892C146.28 126.167 146.082 125.322 146.082 124.359C146.082 123.396 146.286 122.557 146.694 121.843C147.102 121.118 147.657 120.562 148.36 120.177C149.062 119.78 149.85 119.582 150.723 119.582C151.595 119.582 152.383 119.78 153.086 120.177C153.8 120.562 154.355 121.118 154.752 121.843C155.16 122.557 155.364 123.396 155.364 124.359C155.364 125.311 155.16 126.15 154.752 126.875C154.344 127.6 153.783 128.161 153.069 128.558C152.355 128.943 151.561 129.136 150.689 129.136ZM150.689 128.099C151.301 128.099 151.867 127.963 152.389 127.691C152.91 127.408 153.329 126.988 153.647 126.433C153.975 125.866 154.14 125.175 154.14 124.359C154.14 123.543 153.981 122.857 153.664 122.302C153.346 121.735 152.927 121.316 152.406 121.044C151.884 120.761 151.318 120.619 150.706 120.619C150.094 120.619 149.527 120.761 149.006 121.044C148.484 121.316 148.065 121.735 147.748 122.302C147.442 122.857 147.289 123.543 147.289 124.359C147.289 125.175 147.442 125.866 147.748 126.433C148.065 126.988 148.479 127.408 148.989 127.691C149.51 127.963 150.077 128.099 150.689 128.099ZM161.885 119.548C162.996 119.548 163.902 119.894 164.605 120.585C165.308 121.265 165.659 122.257 165.659 123.56V129H164.486V123.696C164.486 122.687 164.231 121.917 163.721 121.384C163.222 120.851 162.537 120.585 161.664 120.585C160.769 120.585 160.055 120.868 159.522 121.435C158.989 122.002 158.723 122.835 158.723 123.934V129H157.533V119.718H158.723V121.299C159.018 120.732 159.443 120.302 159.998 120.007C160.553 119.701 161.182 119.548 161.885 119.548ZM171.946 120.721H169.787V129H168.597V120.721H167.305V119.718H168.597V119.072C168.597 118.063 168.852 117.321 169.362 116.845C169.883 116.369 170.722 116.131 171.878 116.131V117.151C171.107 117.151 170.563 117.298 170.246 117.593C169.94 117.888 169.787 118.381 169.787 119.072V119.718H171.946V120.721ZM174.414 117.967C174.176 117.967 173.972 117.882 173.802 117.712C173.632 117.542 173.547 117.332 173.547 117.083C173.547 116.834 173.632 116.63 173.802 116.471C173.972 116.301 174.176 116.216 174.414 116.216C174.652 116.216 174.856 116.301 175.026 116.471C175.196 116.63 175.281 116.834 175.281 117.083C175.281 117.332 175.196 117.542 175.026 117.712C174.856 117.882 174.652 117.967 174.414 117.967ZM175.009 119.718V129H173.819V119.718H175.009ZM178.894 121.367C179.154 120.789 179.551 120.341 180.084 120.024C180.628 119.707 181.291 119.548 182.073 119.548V120.789H181.75C180.888 120.789 180.197 121.021 179.676 121.486C179.154 121.951 178.894 122.727 178.894 123.815V129H177.704V119.718H178.894V121.367ZM194.913 119.548C196.001 119.548 196.885 119.894 197.565 120.585C198.256 121.265 198.602 122.257 198.602 123.56V129H197.429V123.696C197.429 122.687 197.185 121.917 196.698 121.384C196.211 120.851 195.548 120.585 194.709 120.585C193.836 120.585 193.139 120.874 192.618 121.452C192.097 122.03 191.836 122.869 191.836 123.968V129H190.663V123.696C190.663 122.687 190.419 121.917 189.932 121.384C189.445 120.851 188.776 120.585 187.926 120.585C187.053 120.585 186.356 120.874 185.835 121.452C185.314 122.03 185.053 122.869 185.053 123.968V129H183.863V119.718H185.053V121.316C185.348 120.738 185.767 120.302 186.311 120.007C186.855 119.701 187.461 119.548 188.13 119.548C188.935 119.548 189.637 119.741 190.238 120.126C190.85 120.511 191.292 121.078 191.564 121.826C191.813 121.089 192.238 120.528 192.839 120.143C193.451 119.746 194.142 119.548 194.913 119.548ZM209.643 123.883C209.643 124.291 209.631 124.603 209.609 124.818H201.908C201.942 125.521 202.112 126.121 202.418 126.62C202.724 127.119 203.126 127.498 203.625 127.759C204.123 128.008 204.667 128.133 205.257 128.133C206.027 128.133 206.673 127.946 207.195 127.572C207.727 127.198 208.079 126.694 208.249 126.059H209.507C209.28 126.966 208.793 127.708 208.045 128.286C207.308 128.853 206.379 129.136 205.257 129.136C204.384 129.136 203.602 128.943 202.911 128.558C202.219 128.161 201.675 127.606 201.279 126.892C200.893 126.167 200.701 125.322 200.701 124.359C200.701 123.396 200.893 122.551 201.279 121.826C201.664 121.101 202.202 120.545 202.894 120.16C203.585 119.775 204.373 119.582 205.257 119.582C206.141 119.582 206.911 119.775 207.569 120.16C208.237 120.545 208.747 121.067 209.099 121.724C209.461 122.37 209.643 123.09 209.643 123.883ZM208.436 123.849C208.447 123.158 208.305 122.568 208.011 122.081C207.727 121.594 207.336 121.225 206.838 120.976C206.339 120.727 205.795 120.602 205.206 120.602C204.322 120.602 203.568 120.885 202.945 121.452C202.321 122.019 201.976 122.818 201.908 123.849H208.436ZM211.276 124.342C211.276 123.39 211.469 122.557 211.854 121.843C212.239 121.118 212.766 120.562 213.435 120.177C214.115 119.78 214.88 119.582 215.73 119.582C216.546 119.582 217.283 119.78 217.94 120.177C218.597 120.574 219.079 121.089 219.385 121.724V116.42H220.575V129H219.385V126.926C219.102 127.572 218.637 128.105 217.991 128.524C217.345 128.932 216.586 129.136 215.713 129.136C214.863 129.136 214.098 128.938 213.418 128.541C212.749 128.144 212.222 127.583 211.837 126.858C211.463 126.133 211.276 125.294 211.276 124.342ZM219.385 124.359C219.385 123.611 219.232 122.954 218.926 122.387C218.62 121.82 218.201 121.384 217.668 121.078C217.147 120.772 216.569 120.619 215.934 120.619C215.277 120.619 214.687 120.766 214.166 121.061C213.645 121.356 213.231 121.786 212.925 122.353C212.63 122.908 212.483 123.571 212.483 124.342C212.483 125.101 212.63 125.77 212.925 126.348C213.231 126.915 213.645 127.351 214.166 127.657C214.687 127.952 215.277 128.099 215.934 128.099C216.569 128.099 217.147 127.946 217.668 127.64C218.201 127.334 218.62 126.898 218.926 126.331C219.232 125.764 219.385 125.107 219.385 124.359Z" fill="black"/>
</svg>
