<svg width="69" height="68" viewBox="0 0 69 68" fill="none" xmlns="http://www.w3.org/2000/svg">
<rect width="69" height="68" rx="9" fill="#DBEAFE"/>
<g clip-path="url(#clip0_4867_84)">
<path d="M46.5 25.5C46.5 23.57 44.93 22 43 22H26C24.07 22 22.5 23.57 22.5 25.5C22.5 27.258 23.808 28.704 25.5 28.949V41.5C25.5 43.981 27.519 46 30 46H39C41.481 46 43.5 43.981 43.5 41.5V28.949C45.192 28.704 46.5 27.258 46.5 25.5ZM30.5 23H32.5V45H30.5V23ZM23.5 25.5C23.5 24.293 24.36 23.283 25.5 23.051V27.949C24.36 27.717 23.5 26.707 23.5 25.5ZM26.5 41.5V23H29.5V44.949C27.808 44.704 26.5 43.258 26.5 41.5ZM42.5 41.5C42.5 43.43 40.93 45 39 45H33.5V23H42.5V41.5ZM43.5 27.949V23.051C44.64 23.283 45.5 24.293 45.5 25.5C45.5 26.707 44.64 27.717 43.5 27.949ZM38.5 39C37.397 39 36.5 39.897 36.5 41C36.5 42.103 37.397 43 38.5 43C39.603 43 40.5 42.103 40.5 41C40.5 39.897 39.603 39 38.5 39ZM38.5 42C37.948 42 37.5 41.551 37.5 41C37.5 40.449 37.948 40 38.5 40C39.052 40 39.5 40.449 39.5 41C39.5 41.551 39.052 42 38.5 42Z" fill="black"/>
</g>
<defs>
<clipPath id="clip0_4867_84">
<rect width="24" height="24" fill="white" transform="translate(22.5 22)"/>
</clipPath>
</defs>
</svg>
