<svg width="69" height="68" viewBox="0 0 69 68" fill="none" xmlns="http://www.w3.org/2000/svg">
<rect width="69" height="68" rx="9" fill="#DBFCE7"/>
<g clip-path="url(#clip0_4867_972)">
<path d="M38 39.001H23.5V26.501C23.5 24.571 25.07 23.001 27 23.001H34C35.068 23.001 36.063 23.48 36.731 24.313C36.905 24.53 37.221 24.564 37.434 24.391C37.65 24.219 37.684 23.904 37.512 23.688C36.653 22.616 35.372 22 33.999 22H27C24.519 22.001 22.5 24.02 22.5 26.501V41.501C22.5 43.982 24.519 46.001 27 46.001H34C36.481 46.001 38.5 43.982 38.5 41.501V39.501C38.5 39.225 38.276 39.001 38 39.001ZM37.5 40.001V41.501C37.5 43.431 35.93 45.001 34 45.001H27C25.07 45.001 23.5 43.431 23.5 41.501V40.001H37.5ZM46 36.001H45.5V30.872C46.087 30.623 46.5 30.041 46.5 29.365C46.5 28.766 46.174 28.216 45.647 27.928L41.525 25.68C40.882 25.329 40.117 25.329 39.474 25.68L35.349 27.93C34.825 28.216 34.499 28.766 34.499 29.365C34.499 30.042 34.912 30.623 35.499 30.872V36.001H34.999C34.723 36.001 34.499 36.225 34.499 36.501C34.499 36.777 34.723 37.001 34.999 37.001H45.999C46.275 37.001 46.499 36.777 46.499 36.501C46.499 36.225 46.276 36.001 46 36.001ZM41.5 31.001V36.001H39.5V31.001H41.5ZM42.5 31.001H44.5V36.001H42.5V31.001ZM35.828 28.808L39.953 26.558C40.125 26.465 40.312 26.418 40.5 26.418C40.688 26.418 40.876 26.465 41.047 26.558L45.168 28.806C45.373 28.918 45.5 29.132 45.5 29.365C45.5 29.716 45.215 30.001 44.863 30.001H36.137C35.785 30.001 35.5 29.715 35.5 29.364C35.5 29.131 35.626 28.919 35.828 28.808ZM36.5 31.001H38.5V36.001H36.5V31.001ZM32 43.001H29C28.724 43.001 28.5 42.777 28.5 42.501C28.5 42.225 28.724 42.001 29 42.001H32C32.276 42.001 32.5 42.225 32.5 42.501C32.5 42.777 32.276 43.001 32 43.001Z" fill="black"/>
</g>
<defs>
<clipPath id="clip0_4867_972">
<rect width="24" height="24" fill="white" transform="translate(22.5 22)"/>
</clipPath>
</defs>
</svg>
