<svg width="22" height="22" viewBox="0 0 22 22" fill="none" xmlns="http://www.w3.org/2000/svg">
<path d="M13.75 2.14317V0.458333C13.75 0.205333 13.5447 0 13.2917 0C13.0387 0 12.8333 0.205333 12.8333 0.458333V1.86633C12.6839 1.84525 12.5308 1.83333 12.375 1.83333H10.0833V0.458333C10.0833 0.205333 9.878 0 9.625 0C9.372 0 9.16667 0.205333 9.16667 0.458333V1.83333H6.41667V0.458333C6.41667 0.205333 6.21133 0 5.95833 0C5.70533 0 5.5 0.205333 5.5 0.458333V1.83333H3.20833C3.0525 1.83333 2.89942 1.84433 2.75 1.86633V0.458333C2.75 0.205333 2.54467 0 2.29167 0C2.03867 0 1.83333 0.205333 1.83333 0.458333V2.14317C0.75075 2.65925 0 3.76475 0 5.04167V17.875C0 20.1493 1.85075 22 4.125 22H11.4583C13.7326 22 15.5833 20.1493 15.5833 17.875V5.04167C15.5833 3.76475 14.8326 2.65925 13.75 2.14317ZM14.6667 17.875C14.6667 19.6442 13.2275 21.0833 11.4583 21.0833H4.125C2.35583 21.0833 0.916667 19.6442 0.916667 17.875V5.04167C0.916667 3.77758 1.94517 2.75 3.20833 2.75H12.375C13.6382 2.75 14.6667 3.77758 14.6667 5.04167V17.875ZM11.9167 5.95833C11.9167 6.21133 11.7113 6.41667 11.4583 6.41667H4.125C3.872 6.41667 3.66667 6.21133 3.66667 5.95833C3.66667 5.70533 3.872 5.5 4.125 5.5H11.4583C11.7113 5.5 11.9167 5.70533 11.9167 5.95833ZM11.9167 9.625C11.9167 9.878 11.7113 10.0833 11.4583 10.0833H4.125C3.872 10.0833 3.66667 9.878 3.66667 9.625C3.66667 9.372 3.872 9.16667 4.125 9.16667H11.4583C11.7113 9.16667 11.9167 9.372 11.9167 9.625ZM9.16667 13.2917C9.16667 13.5447 8.96133 13.75 8.70833 13.75H4.125C3.872 13.75 3.66667 13.5447 3.66667 13.2917C3.66667 13.0387 3.872 12.8333 4.125 12.8333H8.70833C8.96133 12.8333 9.16667 13.0387 9.16667 13.2917ZM19.7083 0C18.4452 0 17.4167 1.02758 17.4167 2.29167V18.5698C17.4167 19.415 17.7595 20.2409 18.3563 20.8386L19.3838 21.8662C19.4737 21.956 19.591 22 19.7083 22C19.8257 22 19.943 21.9551 20.0328 21.8662L21.0604 20.8386C21.6581 20.2418 22 19.415 22 18.5698V2.29167C22 1.02758 20.9715 0 19.7083 0ZM21.0833 18.5698C21.0833 19.173 20.8386 19.7642 20.4123 20.1905L19.7083 20.8945L19.0043 20.1905C18.5781 19.7642 18.3333 19.1739 18.3333 18.5698V2.29167C18.3333 1.53358 18.9503 0.916667 19.7083 0.916667C20.4664 0.916667 21.0833 1.53358 21.0833 2.29167V18.5698Z" fill="black"/>
</svg>
