<svg width="69" height="68" viewBox="0 0 69 68" fill="none" xmlns="http://www.w3.org/2000/svg">
<rect width="69" height="68" rx="9" fill="#F2F2F2"/>
<g clip-path="url(#clip0_4867_960)">
<path d="M42.5 28.051V26.5C42.5 24.019 40.481 22 38 22H31C28.519 22 26.5 24.019 26.5 26.5V28.051C24.256 28.303 22.5 30.19 22.5 32.5V41.5C22.5 43.981 24.519 46 27 46H42C44.481 46 46.5 43.981 46.5 41.5V32.5C46.5 30.19 44.744 28.303 42.5 28.051ZM23.5 41.5V32.5C23.5 30.742 24.808 29.296 26.5 29.051V44.95C24.808 44.705 23.5 43.258 23.5 41.5ZM27.5 26.5C27.5 24.57 29.07 23 31 23H38C39.93 23 41.5 24.57 41.5 26.5V45H27.5V26.5ZM45.5 41.5C45.5 43.258 44.192 44.704 42.5 44.949V29.051C44.192 29.296 45.5 30.742 45.5 32.5V41.5ZM33.5 36.5C33.5 36.776 33.276 37 33 37H31C30.724 37 30.5 36.776 30.5 36.5C30.5 36.224 30.724 36 31 36H33C33.276 36 33.5 36.224 33.5 36.5ZM38.5 36.5C38.5 36.776 38.276 37 38 37H36C35.724 37 35.5 36.776 35.5 36.5C35.5 36.224 35.724 36 36 36H38C38.276 36 38.5 36.224 38.5 36.5ZM33.5 40.5C33.5 40.776 33.276 41 33 41H31C30.724 41 30.5 40.776 30.5 40.5C30.5 40.224 30.724 40 31 40H33C33.276 40 33.5 40.224 33.5 40.5ZM38.5 40.5C38.5 40.776 38.276 41 38 41H36C35.724 41 35.5 40.776 35.5 40.5C35.5 40.224 35.724 40 36 40H38C38.276 40 38.5 40.224 38.5 40.5ZM35 29.5V31.5C35 31.776 34.776 32 34.5 32C34.224 32 34 31.776 34 31.5V29.5H32C31.724 29.5 31.5 29.276 31.5 29C31.5 28.724 31.724 28.5 32 28.5H34V26.5C34 26.224 34.224 26 34.5 26C34.776 26 35 26.224 35 26.5V28.5H37C37.276 28.5 37.5 28.724 37.5 29C37.5 29.276 37.276 29.5 37 29.5H35Z" fill="black"/>
</g>
<defs>
<clipPath id="clip0_4867_960">
<rect width="24" height="24" fill="white" transform="translate(22.5 22)"/>
</clipPath>
</defs>
</svg>
