<svg width="69" height="68" viewBox="0 0 69 68" fill="none" xmlns="http://www.w3.org/2000/svg">
<rect width="69" height="68" rx="9" fill="#FFEDD4"/>
<g clip-path="url(#clip0_4867_548)">
<path d="M44 30H39.5V26.5C39.5 25.397 40.397 24.5 41.5 24.5H42.571C42.795 25.36 43.571 26 44.5 26C45.603 26 46.5 25.103 46.5 24C46.5 22.897 45.603 22 44.5 22C43.571 22 42.795 22.64 42.571 23.5H41.5C39.846 23.5 38.5 24.846 38.5 26.5V30H35V25.929C35.86 25.705 36.5 24.929 36.5 24C36.5 22.897 35.603 22 34.5 22C33.397 22 32.5 22.897 32.5 24C32.5 24.929 33.14 25.705 34 25.929V30H27C25.854 30 24.779 29.433 24.128 28.501C24.762 27.594 25.813 27 27 27H31C31.276 27 31.5 26.776 31.5 26.5C31.5 26.224 31.276 26 31 26H27C24.5 25.996 22.491 28.057 22.5 30.5V41.5C22.5 43.981 24.519 46 27 46H44C45.379 46 46.5 44.878 46.5 43.5V32.5C46.5 31.122 45.379 30 44 30ZM44.5 23C45.052 23 45.5 23.449 45.5 24C45.5 24.551 45.052 25 44.5 25C43.948 25 43.5 24.551 43.5 24C43.5 23.449 43.948 23 44.5 23ZM33.5 24C33.5 23.449 33.948 23 34.5 23C35.052 23 35.5 23.449 35.5 24C35.5 24.551 35.052 25 34.5 25C33.948 25 33.5 24.551 33.5 24ZM45.5 43.5C45.5 44.327 44.827 45 44 45H27C25.07 45 23.5 43.43 23.5 41.5V30.5C23.5 30.152 23.551 29.816 23.646 29.499C24.492 30.441 25.71 31 27 31H44C44.827 31 45.5 31.673 45.5 32.5V43.5ZM43.5 38C43.5 38.552 43.052 39 42.5 39C41.948 39 41.5 38.552 41.5 38C41.5 37.448 41.948 37 42.5 37C43.052 37 43.5 37.448 43.5 38Z" fill="black"/>
</g>
<defs>
<clipPath id="clip0_4867_548">
<rect width="24" height="24" fill="white" transform="translate(22.5 22)"/>
</clipPath>
</defs>
</svg>
