<svg width="6" height="7" viewBox="0 0 6 7" fill="none" xmlns="http://www.w3.org/2000/svg">
<path d="M3.18564 0.5C3.43126 0.762571 3.59982 1.11061 3.65088 1.5H5.27129C5.39786 1.5 5.50046 1.61193 5.50046 1.75C5.50046 1.88807 5.39786 2 5.27129 2H3.65088C3.53968 2.84807 2.87111 3.5 2.06296 3.5H0.782883L3.6 6.57322C3.6895 6.67085 3.6895 6.82915 3.6 6.92678C3.51051 7.02441 3.36541 7.02441 3.27591 6.92678L0.0675808 3.42678C-0.0767862 3.26929 0.0254604 3 0.229626 3H2.06296C2.6173 3 3.07971 2.57056 3.18587 2H0.229626C0.103061 2 0.000459392 1.88807 0.000459392 1.75C0.000459392 1.61193 0.103061 1.5 0.229626 1.5H3.18587C3.07971 0.92944 2.6173 0.5 2.06296 0.5H0.229626C0.103061 0.5 0.000459392 0.388071 0.000459392 0.25C0.000459392 0.111929 0.103061 0 0.229626 0H2.06296H5.27129C5.39786 0 5.50046 0.111929 5.50046 0.25C5.50046 0.388071 5.39786 0.5 5.27129 0.5H3.18564Z" fill="#302F2F"/>
</svg>
