<svg width="22" height="22" viewBox="0 0 22 22" fill="none" xmlns="http://www.w3.org/2000/svg">
<g clip-path="url(#clip0_4804_175)">
<path d="M11 22C4.93442 22 0 17.0656 0 11C0 4.93442 4.93442 0 11 0C17.0656 0 22 4.93442 22 11C22 17.0656 17.0656 22 11 22ZM11 0.916667C5.44042 0.916667 0.916667 5.44042 0.916667 11C0.916667 16.5596 5.44042 21.0833 11 21.0833C16.5596 21.0833 21.0833 16.5596 21.0833 11C21.0833 5.44042 16.5596 0.916667 11 0.916667Z" fill="black"/>
<path d="M7.33325 14.2109C7.18567 14.2109 7.04083 14.1394 6.95192 14.0065C6.81167 13.7966 6.8685 13.5115 7.07933 13.3713L10.9999 10.7569V5.04427C10.9999 4.79127 11.2053 4.58594 11.4583 4.58594C11.7113 4.58594 11.9166 4.79127 11.9166 5.04427V11.0026C11.9166 11.1557 11.8396 11.2987 11.7122 11.3839L7.58717 14.1339C7.50925 14.1862 7.42033 14.2109 7.33325 14.2109Z" fill="black"/>
</g>
<defs>
<clipPath id="clip0_4804_175">
<rect width="22" height="22" fill="white"/>
</clipPath>
</defs>
</svg>
