<svg width="20" height="24" viewBox="0 0 20 24" fill="none" xmlns="http://www.w3.org/2000/svg">
<path d="M16 11.5C16 11.776 15.776 12 15.5 12H4.5C4.224 12 4 11.776 4 11.5C4 11.224 4.224 11 4.5 11H15.5C15.776 11 16 11.224 16 11.5ZM15.5 15H4.5C4.224 15 4 15.224 4 15.5C4 15.776 4.224 16 4.5 16H15.5C15.776 16 16 15.776 16 15.5C16 15.224 15.776 15 15.5 15ZM15.085 18.221C15.05 18.273 14.193 19.5 12.5 19.5C11.502 19.5 10.92 19.18 10.245 18.81C9.549 18.427 8.808 18.001 7.497 18C5.376 18.011 4.149 19.633 4.099 19.702C3.935 19.923 3.981 20.235 4.202 20.4C4.422 20.565 4.735 20.521 4.901 20.299C4.911 20.286 5.892 19.008 7.504 19C8.49 18.969 9.09 19.315 9.765 19.687C10.46 20.068 11.246 20.5 12.501 20.5C14.743 20.5 15.87 18.848 15.917 18.777C16.069 18.548 16.008 18.24 15.779 18.086C15.553 17.933 15.243 17.991 15.086 18.22L15.085 18.221ZM20 9.986V19.501C20 21.982 17.981 24.001 15.5 24.001H4.5C2.019 24.001 0 21.982 0 19.501V4.5C0 2.019 2.019 0 4.5 0H10.015C11.75 0 13.383 0.676 14.612 1.904L18.096 5.389C19.324 6.616 20 8.248 20 9.985V9.986ZM13.904 2.611C13.353 2.061 12.704 1.652 12 1.38V6.5C12 7.327 12.673 8 13.5 8H18.621C18.348 7.296 17.939 6.646 17.389 6.096L13.904 2.611ZM19 9.986C19 9.651 18.962 9.323 18.904 9.001H13.5C12.121 9.001 11 7.879 11 6.501V1.096C10.677 1.038 10.349 1 10.015 1H4.5C2.57 1 1 2.57 1 4.5V19.5C1 21.43 2.57 23 4.5 23H15.5C17.43 23 19 21.43 19 19.5V9.985V9.986Z" fill="black"/>
</svg>
