<svg width="69" height="68" viewBox="0 0 69 68" fill="none" xmlns="http://www.w3.org/2000/svg">
<rect width="69" height="68" rx="9" fill="#F3E8FF"/>
<path d="M39.0202 49.5H29.9785C26.7739 49.5 24.166 46.8921 24.166 43.6875V24.3125C24.166 21.1079 26.7739 18.5 29.9785 18.5H39.0202C42.2248 18.5 44.8327 21.1079 44.8327 24.3125V43.6875C44.8327 46.8921 42.2248 49.5 39.0202 49.5ZM29.9785 19.7917C27.4856 19.7917 25.4577 21.8196 25.4577 24.3125V43.6875C25.4577 46.1804 27.4856 48.2083 29.9785 48.2083H39.0202C41.5131 48.2083 43.541 46.1804 43.541 43.6875V24.3125C43.541 21.8196 41.5131 19.7917 39.0202 19.7917H29.9785ZM37.0827 44.9792C37.0827 44.6227 36.7933 44.3333 36.4368 44.3333H32.5618C32.2053 44.3333 31.916 44.6227 31.916 44.9792C31.916 45.3357 32.2053 45.625 32.5618 45.625H36.4368C36.7933 45.625 37.0827 45.3357 37.0827 44.9792Z" fill="black"/>
</svg>
