<svg width="30" height="30" viewBox="0 0 30 30" fill="none" xmlns="http://www.w3.org/2000/svg">
<path fill-rule="evenodd" clip-rule="evenodd" d="M20.3569 1H8.74275C4.46654 1 1 4.46654 1 8.74275V20.3569C1 24.633 4.46654 28.0996 8.74275 28.0996H20.3569C24.633 28.0996 28.0996 24.633 28.0996 20.3569V8.74275C28.0996 4.46654 24.633 1 20.3569 1Z" stroke="#939393" stroke-width="2" stroke-linecap="round" stroke-linejoin="round"/>
<path fill-rule="evenodd" clip-rule="evenodd" d="M14.5492 20.368C11.342 20.368 8.74219 17.7682 8.74219 14.561C8.74219 11.3537 11.342 8.75391 14.5492 8.75391C17.7565 8.75391 20.3563 11.3537 20.3563 14.561C20.3563 16.101 19.7444 17.5781 18.6554 18.6671C17.5664 19.7562 16.0893 20.368 14.5492 20.368Z" stroke="#939393" stroke-width="2" stroke-linecap="round" stroke-linejoin="round"/>
<path d="M21.414 4.87503C20.8294 4.87503 20.3555 5.34897 20.3555 5.93361C20.3555 6.51825 20.8294 6.99219 21.414 6.99219C21.9987 6.99219 22.4726 6.51825 22.4726 5.93361C22.4726 5.34897 21.9987 4.87503 21.414 4.87503Z" fill="#939393"/>
</svg>
