<svg width="29" height="28" viewBox="0 0 29 28" fill="none" xmlns="http://www.w3.org/2000/svg">
<g clip-path="url(#clip0_4283_1755)">
<path fill-rule="evenodd" clip-rule="evenodd" d="M29 28H23.2V18.2014C23.2 15.5134 21.9719 14.0137 19.7693 14.0137C17.3725 14.0137 15.95 15.5764 15.95 18.2014V28H10.15V9.8H15.95V11.8467C15.95 11.8467 17.7697 8.76367 21.8703 8.76367C25.9724 8.76367 29 11.1805 29 16.1813V28ZM3.5409 6.88926C1.58485 6.88926 0 5.34655 0 3.44395C0 1.54275 1.58485 0 3.5409 0C5.4955 0 7.08034 1.54275 7.08034 3.44395C7.08179 5.34655 5.4955 6.88926 3.5409 6.88926ZM0 28H7.25V9.8H0V28Z" fill="#939393"/>
</g>
<defs>
<clipPath id="clip0_4283_1755">
<rect width="29" height="28" fill="white"/>
</clipPath>
</defs>
</svg>
