<svg width="24" height="24" viewBox="0 0 24 24" fill="none" xmlns="http://www.w3.org/2000/svg">
<g clip-path="url(#clip0_4283_1764)">
<path d="M1.73045 1.76922L2.85045 0.789219C3.87045 -0.230781 5.60045 -0.280781 6.70045 0.839219L8.57045 3.28922C9.62045 4.33922 9.62045 6.04922 8.57045 7.08922L7.08045 8.61922C8.70045 12.4192 11.6904 15.4192 15.3705 16.9192L16.9004 15.4292C17.4104 14.9192 18.0805 14.6392 18.8005 14.6392C19.5205 14.6392 20.1905 14.9192 20.6505 15.3892L23.1905 17.3492C24.2405 18.3992 24.2405 20.1092 23.2105 21.1292L22.1905 22.2992C21.0905 23.3992 19.6105 24.0092 18.0005 24.0092C10.2504 24.0092 -0.0195541 13.7292 -0.0195541 5.98922C-0.0195541 4.38922 0.590446 2.89922 1.71045 1.77922L1.73045 1.76922ZM18.0205 22.9992C19.3605 22.9992 20.5905 22.4992 21.4805 21.6092L22.5005 20.4292C23.1605 19.7692 23.1605 18.6992 22.5505 18.0792L20.0105 16.1192C19.6905 15.7992 19.2705 15.6192 18.8105 15.6192C18.3505 15.6192 17.9304 15.7992 17.6104 16.1192L15.8405 17.8492C15.7004 17.9892 15.5005 18.0292 15.3105 17.9592C11.1404 16.3692 7.75045 12.9792 6.02045 8.67922C5.95045 8.49922 5.99045 8.28922 6.13045 8.13922L7.86045 6.36922C8.52045 5.70922 8.52045 4.63922 7.82045 3.92922L5.95045 1.47922C5.29045 0.819219 4.22045 0.819219 3.53045 1.49922L2.41045 2.47922C1.50045 3.38922 1.00045 4.61922 1.00045 5.95922C1.00045 13.1192 10.8604 22.9792 18.0205 22.9792V22.9992Z" fill="#0C0E11"/>
</g>
<defs>
<clipPath id="clip0_4283_1764">
<rect width="24" height="24" fill="white" transform="matrix(-1 0 0 1 24 0)"/>
</clipPath>
</defs>
</svg>
