<svg width="19" height="19" viewBox="0 0 19 19" fill="none" xmlns="http://www.w3.org/2000/svg">
<g clip-path="url(#clip0_5820_1148)">
<path d="M19 9.5C19 9.7185 18.8227 9.89583 18.6042 9.89583H9.89583V18.6042C9.89583 18.8227 9.7185 19 9.5 19C9.2815 19 9.10417 18.8227 9.10417 18.6042V9.89583H0.395833C0.177333 9.89583 0 9.7185 0 9.5C0 9.2815 0.177333 9.10417 0.395833 9.10417H9.10417V0.395833C9.10417 0.177333 9.2815 0 9.5 0C9.7185 0 9.89583 0.177333 9.89583 0.395833V9.10417H18.6042C18.8227 9.10417 19 9.2815 19 9.5Z" fill="black"/>
</g>
<defs>
<clipPath id="clip0_5820_1148">
<rect width="19" height="19" fill="white"/>
</clipPath>
</defs>
</svg>
