<svg width="19" height="19" viewBox="0 0 19 19" fill="none" xmlns="http://www.w3.org/2000/svg">
<rect x="0.5" y="0.5" width="18" height="18" rx="9" fill="white"/>
<rect x="0.5" y="0.5" width="18" height="18" rx="9" stroke="#155DFC"/>
<g clip-path="url(#clip0_5806_1144)">
<path d="M9.50071 13.1673C9.37421 13.1673 9.27154 13.0646 9.27154 12.9381C9.27154 11.6108 10.2845 10.8994 11.0471 10.4796C12.2507 9.81595 12.8979 8.45149 12.6577 7.08382C12.4318 5.79499 11.3735 4.7367 10.0842 4.51074C9.15788 4.34757 8.24763 4.57262 7.52117 5.14232C6.80479 5.70516 6.35929 6.54757 6.29971 7.45324C6.291 7.57974 6.18146 7.67278 6.05588 7.66682C5.92938 7.65857 5.83404 7.54949 5.84229 7.42299C5.91059 6.38762 6.41934 5.42466 7.23838 4.78162C8.06796 4.13032 9.10563 3.8732 10.1635 4.05882C11.6388 4.31778 12.8502 5.52916 13.1092 7.00453C13.3833 8.56516 12.643 10.123 11.268 10.8807C10.2043 11.4669 9.72988 12.1017 9.72988 12.9381C9.72988 13.0646 9.62721 13.1673 9.50071 13.1673ZM9.04238 14.5423C9.04238 14.7953 9.24771 15.0006 9.50071 15.0006C9.75371 15.0006 9.95904 14.7953 9.95904 14.5423C9.95904 14.2893 9.75371 14.084 9.50071 14.084C9.24771 14.084 9.04238 14.2893 9.04238 14.5423Z" fill="#155DFC"/>
</g>
<defs>
<clipPath id="clip0_5806_1144">
<rect width="11" height="11" fill="white" transform="translate(4 4)"/>
</clipPath>
</defs>
</svg>
