<svg width="48" height="33" viewBox="0 0 48 33" fill="none" xmlns="http://www.w3.org/2000/svg">
<path d="M23.3269 0C23.7913 0.156936 24.0065 0.523952 24.3134 0.9C24.3778 0.976256 24.3778 0.976256 24.4435 1.05405C25.5536 2.36896 26.5212 3.85192 27.0756 5.5C27.1068 5.5865 27.138 5.67299 27.1701 5.76211C27.7261 7.57669 27.41 9.53981 26.5824 11.2C26.5472 11.2736 26.5119 11.3472 26.4756 11.423C26.1082 12.1456 25.6002 12.7668 25.1026 13.4C25.0322 13.4904 24.9617 13.5807 24.8891 13.6738C24.4877 14.1751 24.0104 14.5867 23.5242 15C21.7614 14.1805 20.423 11.7639 19.7634 10.0051C19.1118 7.94123 19.5346 5.88727 20.466 4C21.0772 2.80927 21.889 1.77763 22.7307 0.747266C22.9321 0.500238 23.13 0.250696 23.3269 0ZM23.1446 3.27305C22.136 4.40725 21.3751 5.61214 20.7619 7C20.724 7.08366 20.6861 7.16732 20.6471 7.25352C20.2776 8.2459 20.283 9.76812 20.6536 10.759C20.7072 10.8783 20.7072 10.8783 20.7619 11C20.8088 11.1094 20.8558 11.2189 20.9041 11.3316C21.4843 12.5966 22.3443 13.5414 23.3269 14.5C23.7251 14.3382 23.9984 14.0538 24.2949 13.75C24.3474 13.6962 24.3998 13.6425 24.4539 13.5871C25.7669 12.2152 26.5271 10.576 26.5119 8.6543C26.3773 6.96012 25.4886 5.5282 24.4984 4.2125C24.4582 4.15897 24.418 4.10544 24.3765 4.05029C24.1143 3.70822 23.84 3.39216 23.5242 3.1C23.3092 3.07721 23.3092 3.07721 23.1446 3.27305Z" fill="#0959A6"/>
<path d="M2.93825 23.0997L0.00589775 16.7627C0.00314522 16.7568 0.00748937 16.75 0.0140437 16.75C0.0150898 16.75 0.0161279 16.7502 0.017111 16.7505L5.22031 18.6426C5.41255 18.7125 5.57873 18.8397 5.69644 19.007L8.31363 22.727C8.35197 22.7815 8.39565 22.832 8.44403 22.8778L12.0781 26.318C12.1228 26.3604 12.1714 26.3985 12.2232 26.432L15.9832 28.8593C16.0742 28.9181 16.1742 28.9617 16.2792 28.9884L19.0896 29.7029L22.8821 30.1891C22.9701 30.2004 23.0591 30.1999 23.1469 30.1877L26.6377 29.7029L29.506 28.9481L31.098 28.3209C31.1436 28.3029 31.1879 28.2816 31.2304 28.2571L32.8271 27.3378L35.5477 25.3459C35.6124 25.2986 35.6712 25.2436 35.7227 25.1823L36.7018 24.0166L37.8089 22.7586L40.3379 19.0507C40.4704 18.8565 40.667 18.7151 40.8933 18.6515L46.9808 16.9398L46.9872 16.9278C46.9905 16.9215 47 16.9256 46.9978 16.9323C46.9972 16.9341 46.9957 16.9356 46.9939 16.9361L46.9808 16.9398L43.6839 23.0906C43.6588 23.1375 43.6279 23.181 43.5919 23.2202L40.8996 26.1529C40.8521 26.2046 40.7992 26.2513 40.742 26.2919L37.356 28.6965L33.7273 30.6089C33.6641 30.6422 33.5976 30.6686 33.5287 30.6877L29.1984 31.8906C29.1352 31.9081 29.0705 31.9194 29.0051 31.9243L24.3733 32.2692H21.4547L19.029 32.1237C18.9689 32.1201 18.9092 32.111 18.8507 32.0967L13.7156 30.8372C13.6419 30.8191 13.5704 30.7926 13.5026 30.7584L9.19473 28.5802C9.14903 28.5571 9.10518 28.5305 9.06356 28.5007L5.831 26.1848C5.78018 26.1484 5.73288 26.1073 5.68973 26.0621L3.12213 23.3699C3.04644 23.2905 2.98431 23.1992 2.93825 23.0997Z" fill="#F3A532"/>
<path d="M26.1754 18.2335L25.6056 19.6989C25.5491 19.8442 25.46 19.9745 25.3451 20.0798L25.1573 20.2519C25.0078 20.389 24.7967 20.4366 24.6027 20.3769C24.394 20.3127 24.2401 20.1352 24.206 19.9195L24.1431 19.5212C24.1217 19.3853 24.1234 19.2468 24.1482 19.1115L24.4626 17.3966C24.5967 16.6651 24.8019 15.9483 25.0752 15.2565L25.5839 13.9687C26.0425 12.808 26.6454 11.7096 27.3785 10.6996L27.4484 10.6033C28.1723 9.606 29.0249 8.7089 29.9841 7.93533C31.094 7.04022 32.3345 6.32035 33.6624 5.80075L33.8341 5.73355C35.4581 5.09808 37.1795 4.74749 38.9227 4.69721L40.2154 4.65992C41.0823 4.63491 41.9486 4.7272 42.7907 4.93428L44.3995 5.3299C44.5262 5.36104 44.6457 5.41609 44.7517 5.49207C45.454 5.99536 45.2565 7.08843 44.4225 7.31413L43.9216 7.4497C43.7012 7.50935 43.5009 7.6273 43.3418 7.79113L41.8065 9.37224C40.76 10.45 39.9901 11.7652 39.5628 13.2054L39.2313 14.3229C38.9808 15.1672 38.6514 15.986 38.2475 16.7686L38.1542 16.9494C37.0258 19.1357 35.4141 21.0362 33.4415 22.5067L32.6455 23.1001C31.49 23.9614 30.2213 24.6593 28.8751 25.174L28.7048 25.2391C26.7706 25.9787 24.7029 26.3046 22.635 26.1957C20.9147 26.1052 19.2233 25.7153 17.637 25.0436L16.9979 24.773C15.3105 24.0585 13.7539 23.068 12.3919 21.8422C10.7605 20.374 9.43838 18.5952 8.50277 16.6099L7.85713 15.2399L6.91423 12.4112C6.6063 11.4874 6.12629 10.6302 5.49957 9.88492L4.86497 9.13026C4.68073 8.91116 4.45807 8.72749 4.20794 8.58827L1.6579 7.16892C0.985455 6.79463 1.03712 5.81085 1.74507 5.50906C1.79403 5.48818 1.8447 5.47157 1.89652 5.45941L3.51901 5.07862C5.64966 4.57857 7.86114 4.52807 10.0124 4.93034L10.3428 4.99212C12.0587 5.31299 13.6994 5.9526 15.1797 6.87783C16.3634 7.61758 17.4294 8.53052 18.3425 9.58623L18.9463 10.2844C19.7693 11.236 20.4703 12.2867 21.033 13.4121C21.6395 14.6251 22.08 15.9142 22.3426 17.2448L22.7017 19.0643L22.7519 19.5913C22.7819 19.906 22.6026 20.2033 22.3104 20.3236L22.2944 20.3302C22.0779 20.4193 21.8309 20.392 21.6391 20.2578C21.5126 20.1692 21.4196 20.0405 21.3752 19.8926L21.2928 19.6178L20.7943 18.5012C20.2922 17.3765 19.5882 16.3533 18.7173 15.4824L17.5907 14.3558C17.4765 14.2416 17.3427 14.1491 17.1957 14.0826C16.3093 13.6816 15.3046 14.3298 15.3046 15.3027V16.0406C15.3046 16.2104 15.3284 16.3795 15.3754 16.5427L15.6619 17.5378C16.0557 18.9056 16.7629 20.1628 17.7275 21.2095L17.7932 21.2808C18.3456 21.8801 18.9784 22.4 19.6735 22.8256L20.0286 23.0431C20.731 23.4731 21.5076 23.7681 22.3183 23.9129L22.6752 23.9766C23.4861 24.1214 24.3199 24.0687 25.1062 23.823C25.3814 23.737 25.6488 23.628 25.9057 23.497L26.4283 23.2306C27.5243 22.6719 28.5091 21.9178 29.3345 21.0056L29.5774 20.7372C29.8573 20.4278 30.1063 20.0918 30.321 19.734C30.7067 19.0912 30.9767 18.3858 31.1187 17.6497L31.4272 16.0514C31.4474 15.9467 31.4575 15.8404 31.4575 15.7339V14.6684C31.4575 13.9819 30.76 13.5157 30.1257 13.7782C30.0412 13.8132 29.962 13.86 29.8907 13.9173L28.5489 14.9952C27.4874 15.8478 26.6689 16.9646 26.1754 18.2335Z" fill="#F3A532"/>
</svg>
