<svg width="24" height="24" viewBox="0 0 24 24" fill="none" xmlns="http://www.w3.org/2000/svg">
<g clip-path="url(#clip0_4381_1790)">
<path d="M14.25 12C13.288 12 12.485 12.415 12 13.09C11.515 12.415 10.712 12 9.75 12C8.233 12 7 13.314 7 14.93C7 17.045 9.549 19.638 10.897 20.713C11.222 20.972 11.611 21.101 12 21.101C12.389 21.101 12.778 20.972 13.104 20.713C14.452 19.638 17 17.046 17 14.93C17 13.314 15.767 12 14.25 12ZM12.48 19.931C12.198 20.157 11.803 20.157 11.521 19.931C10.059 18.765 8 16.443 8 14.931C8 13.867 8.785 13.001 9.75 13.001C10.78 13.001 11.5 13.704 11.5 14.71C11.5 14.986 11.724 15.21 12 15.21C12.276 15.21 12.5 14.986 12.5 14.71C12.5 13.704 13.22 13.001 14.25 13.001C15.215 13.001 16 13.867 16 14.931C16 16.443 13.941 18.766 12.48 19.931ZM19.5 2H18V0.5C18 0.224 17.776 0 17.5 0C17.224 0 17 0.224 17 0.5V2H7V0.5C7 0.224 6.776 0 6.5 0C6.224 0 6 0.224 6 0.5V2H4.5C2.019 2 0 4.019 0 6.5V19.5C0 21.981 2.019 24 4.5 24H19.5C21.981 24 24 21.981 24 19.5V6.5C24 4.019 21.981 2 19.5 2ZM4.5 3H19.5C21.43 3 23 4.57 23 6.5V8H1V6.5C1 4.57 2.57 3 4.5 3ZM19.5 23H4.5C2.57 23 1 21.43 1 19.5V9H23V19.5C23 21.43 21.43 23 19.5 23Z" fill="white"/>
</g>
<defs>
<clipPath id="clip0_4381_1790">
<rect width="24" height="24" fill="white"/>
</clipPath>
</defs>
</svg>
