<svg width="19" height="19" viewBox="0 0 19 19" fill="none" xmlns="http://www.w3.org/2000/svg">
<rect x="0.5" y="0.5" width="18" height="18" rx="9" fill="white"/>
<rect x="0.5" y="0.5" width="18" height="18" rx="9" stroke="#155DFC"/>
<path d="M14.6456 5.54558L7.73614 12.4546C7.68969 12.5012 7.63448 12.5382 7.57369 12.5635C7.5129 12.5887 7.44772 12.6017 7.38189 12.6017C7.31607 12.6017 7.25089 12.5887 7.1901 12.5635C7.12931 12.5382 7.0741 12.5012 7.02764 12.4546L4.35564 9.78008C4.30919 9.73344 4.25398 9.69644 4.19319 9.67119C4.1324 9.64594 4.06722 9.63294 4.00139 9.63294C3.93557 9.63294 3.87039 9.64594 3.8096 9.67119C3.74881 9.69644 3.6936 9.73344 3.64714 9.78008C3.60051 9.82654 3.5635 9.88174 3.53825 9.94254C3.513 10.0033 3.5 10.0685 3.5 10.1343C3.5 10.2002 3.513 10.2653 3.53825 10.3261C3.5635 10.3869 3.60051 10.4421 3.64714 10.4886L6.32014 13.1611C6.60212 13.4425 6.98424 13.6006 7.38264 13.6006C7.78105 13.6006 8.16317 13.4425 8.44514 13.1611L15.3541 6.25358C15.4007 6.20714 15.4377 6.15196 15.4629 6.09122C15.4881 6.03047 15.501 5.96535 15.501 5.89958C15.501 5.83381 15.4881 5.76869 15.4629 5.70795C15.4377 5.6472 15.4007 5.59203 15.3541 5.54558C15.3077 5.49894 15.2525 5.46194 15.1917 5.43669C15.1309 5.41144 15.0657 5.39844 14.9999 5.39844C14.9341 5.39844 14.8689 5.41144 14.8081 5.43669C14.7473 5.46194 14.6921 5.49894 14.6456 5.54558Z" fill="#155DFC"/>
</svg>
