<svg width="100" height="100" viewBox="0 0 100 100" fill="none" xmlns="http://www.w3.org/2000/svg">
<rect width="100" height="100" rx="50" fill="#155DFC"/>
<g clip-path="url(#clip0_5011_1662)">
<path d="M50 76.8333C50 77.4773 49.4773 78 48.8333 78H32.5C26.711 78 22 73.289 22 67.5V32.5C22 26.711 26.711 22 32.5 22H53.5C59.289 22 64 26.711 64 32.5V62.8333C64 63.4773 63.4773 64 62.8333 64C62.1893 64 61.6667 63.4773 61.6667 62.8333V32.5C61.6667 27.9967 58.0033 24.3333 53.5 24.3333H32.5C27.9967 24.3333 24.3333 27.9967 24.3333 32.5V67.5C24.3333 72.0033 27.9967 75.6667 32.5 75.6667H48.8333C49.4773 75.6667 50 76.1893 50 76.8333ZM53.5 33.6667H32.5C31.856 33.6667 31.3333 34.1893 31.3333 34.8333C31.3333 35.4773 31.856 36 32.5 36H53.5C54.144 36 54.6667 35.4773 54.6667 34.8333C54.6667 34.1893 54.144 33.6667 53.5 33.6667ZM54.6667 46.5C54.6667 45.856 54.144 45.3333 53.5 45.3333H32.5C31.856 45.3333 31.3333 45.856 31.3333 46.5C31.3333 47.144 31.856 47.6667 32.5 47.6667H53.5C54.144 47.6667 54.6667 47.144 54.6667 46.5ZM32.5 57C31.856 57 31.3333 57.5227 31.3333 58.1667C31.3333 58.8107 31.856 59.3333 32.5 59.3333H39.5C40.144 59.3333 40.6667 58.8107 40.6667 58.1667C40.6667 57.5227 40.144 57 39.5 57H32.5ZM77.6593 60.339C77.2043 59.884 76.4647 59.884 76.0097 60.339L61.6363 74.7123C60.3857 75.998 58.2203 75.9723 57.0047 74.689L50.1913 67.7403C49.7387 67.2807 48.999 67.2713 48.5417 67.724C48.082 68.1743 48.075 68.914 48.5253 69.3737L55.3363 76.3223C57.4107 78.532 61.1883 78.5507 63.286 76.3643L77.6593 61.991C78.1143 61.536 78.1143 60.794 77.6593 60.339Z" fill="#FBFBFB"/>
</g>
<defs>
<clipPath id="clip0_5011_1662">
<rect width="56" height="56" fill="white" transform="translate(22 22)"/>
</clipPath>
</defs>
</svg>
