<svg width="48" height="33" viewBox="0 0 48 33" fill="none" xmlns="http://www.w3.org/2000/svg">
<path d="M23.3271 0C23.7916 0.156936 24.0067 0.523952 24.3136 0.9C24.378 0.976256 24.378 0.976256 24.4437 1.05405C25.5538 2.36896 26.5215 3.85192 27.0759 5.5C27.107 5.5865 27.1382 5.67299 27.1703 5.76211C27.7264 7.57669 27.4102 9.53981 26.5826 11.2C26.5474 11.2736 26.5122 11.3472 26.4759 11.423C26.1084 12.1456 25.6005 12.7668 25.1028 13.4C25.0324 13.4904 24.9619 13.5807 24.8894 13.6738C24.4879 14.1751 24.0106 14.5867 23.5244 15C21.7616 14.1805 20.4233 11.7639 19.7637 10.0051C19.112 7.94123 19.5348 5.88727 20.4662 4C21.0775 2.80927 21.8893 1.77763 22.731 0.747266C22.9323 0.500238 23.1302 0.250696 23.3271 0ZM23.1448 3.27305C22.1362 4.40725 21.3753 5.61214 20.7622 7C20.7243 7.08366 20.6864 7.16732 20.6473 7.25352C20.2778 8.2459 20.2832 9.76812 20.6539 10.759C20.7075 10.8783 20.7075 10.8783 20.7622 11C20.8091 11.1094 20.856 11.2189 20.9044 11.3316C21.4846 12.5966 22.3445 13.5414 23.3271 14.5C23.7253 14.3382 23.9987 14.0538 24.2951 13.75C24.3476 13.6962 24.4001 13.6425 24.4541 13.5871C25.7672 12.2152 26.5274 10.576 26.5121 8.6543C26.3776 6.96012 25.4889 5.5282 24.4986 4.2125C24.4584 4.15897 24.4182 4.10544 24.3768 4.05029C24.1145 3.70822 23.8403 3.39216 23.5244 3.1C23.3095 3.07721 23.3095 3.07721 23.1448 3.27305Z" fill="#0959A6"/>
<path d="M2.93825 23.0997L0.00589775 16.7627C0.00314522 16.7568 0.00748937 16.75 0.0140437 16.75C0.0150898 16.75 0.0161279 16.7502 0.017111 16.7505L5.22031 18.6426C5.41255 18.7125 5.57873 18.8397 5.69644 19.007L8.31363 22.727C8.35197 22.7815 8.39565 22.832 8.44403 22.8778L12.0781 26.318C12.1228 26.3604 12.1714 26.3985 12.2232 26.432L15.9832 28.8593C16.0742 28.9181 16.1742 28.9617 16.2792 28.9884L19.0896 29.7029L22.8821 30.1891C22.9701 30.2004 23.0591 30.1999 23.1469 30.1877L26.6377 29.7029L29.506 28.9481L31.098 28.3209C31.1436 28.3029 31.1879 28.2816 31.2304 28.2571L32.8271 27.3378L35.5477 25.3459C35.6124 25.2986 35.6712 25.2436 35.7227 25.1823L36.7018 24.0166L37.8089 22.7586L40.3379 19.0507C40.4704 18.8565 40.667 18.7151 40.8933 18.6515L46.9808 16.9398L46.9872 16.9278C46.9905 16.9215 47 16.9256 46.9978 16.9323C46.9972 16.9341 46.9957 16.9356 46.9939 16.9361L46.9808 16.9398L43.6839 23.0906C43.6588 23.1375 43.6279 23.181 43.5919 23.2202L40.8996 26.1529C40.8521 26.2046 40.7992 26.2513 40.742 26.2919L37.356 28.6965L33.7273 30.6089C33.6641 30.6422 33.5976 30.6686 33.5287 30.6877L29.1984 31.8906C29.1352 31.9081 29.0705 31.9194 29.0051 31.9243L24.3733 32.2692H21.4547L19.029 32.1237C18.9689 32.1201 18.9092 32.111 18.8507 32.0967L13.7156 30.8372C13.6419 30.8191 13.5704 30.7926 13.5026 30.7584L9.19473 28.5802C9.14903 28.5571 9.10518 28.5305 9.06356 28.5007L5.831 26.1848C5.78018 26.1484 5.73288 26.1073 5.68973 26.0621L3.12213 23.3699C3.04644 23.2905 2.98431 23.1992 2.93825 23.0997Z" fill="#F3A532"/>
<path d="M26.1763 18.2335L25.6064 19.6989C25.5499 19.8442 25.4608 19.9745 25.3459 20.0798L25.1582 20.2519C25.0086 20.389 24.7975 20.4366 24.6036 20.3769C24.3949 20.3127 24.2409 20.1352 24.2069 19.9195L24.144 19.5212C24.1225 19.3853 24.1242 19.2468 24.1491 19.1115L24.4634 17.3966C24.5976 16.6651 24.8027 15.9483 25.076 15.2565L25.5848 13.9687C26.0433 12.808 26.6463 11.7096 27.3794 10.6996L27.4493 10.6033C28.1731 9.606 29.0257 8.7089 29.985 7.93533C31.0949 7.04022 32.3354 6.32035 33.6632 5.80075L33.835 5.73355C35.4589 5.09808 37.1804 4.74749 38.9235 4.69721L40.2163 4.65992C41.0831 4.63491 41.9494 4.7272 42.7915 4.93428L44.4004 5.3299C44.527 5.36104 44.6466 5.41609 44.7526 5.49207C45.4548 5.99536 45.2573 7.08843 44.4234 7.31413L43.9225 7.4497C43.702 7.50935 43.5017 7.6273 43.3426 7.79113L41.8074 9.37224C40.7608 10.45 39.991 11.7652 39.5637 13.2054L39.2321 14.3229C38.9816 15.1672 38.6522 15.986 38.2483 16.7686L38.155 16.9494C37.0266 19.1357 35.415 21.0362 33.4424 22.5067L32.6464 23.1001C31.4909 23.9614 30.2221 24.6593 28.876 25.174L28.7057 25.2391C26.7715 25.9787 24.7037 26.3046 22.6359 26.1957C20.9155 26.1052 19.2242 25.7153 17.6378 25.0436L16.9987 24.773C15.3114 24.0585 13.7547 23.068 12.3927 21.8422C10.7614 20.374 9.43923 18.5952 8.50363 16.6099L7.85799 15.2399L6.91509 12.4112C6.60715 11.4874 6.12715 10.6302 5.50042 9.88492L4.86582 9.13026C4.68158 8.91116 4.45893 8.72749 4.20879 8.58827L1.65876 7.16892C0.986309 6.79463 1.03797 5.81085 1.74592 5.50906C1.79488 5.48818 1.84556 5.47157 1.89737 5.45941L3.51987 5.07862C5.65051 4.57857 7.86199 4.52807 10.0132 4.93034L10.3436 4.99212C12.0596 5.31299 13.7002 5.9526 15.1806 6.87783C16.3642 7.61758 17.4303 8.53052 18.3433 9.58623L18.9472 10.2844C19.7702 11.236 20.4712 12.2867 21.0339 13.4121C21.6404 14.6251 22.0809 15.9142 22.3435 17.2448L22.7026 19.0643L22.7528 19.5913C22.7828 19.906 22.6035 20.2033 22.3112 20.3236L22.2952 20.3302C22.0787 20.4193 21.8318 20.392 21.64 20.2578C21.5134 20.1692 21.4204 20.0405 21.376 19.8926L21.2936 19.6178L20.7951 18.5012C20.293 17.3765 19.5891 16.3533 18.7181 15.4824L17.5915 14.3558C17.4774 14.2416 17.3436 14.1491 17.1965 14.0826C16.3101 13.6816 15.3055 14.3298 15.3055 15.3027V16.0406C15.3055 16.2104 15.3293 16.3795 15.3763 16.5427L15.6628 17.5378C16.0565 18.9056 16.7638 20.1628 17.7284 21.2095L17.7941 21.2808C18.3464 21.8801 18.9792 22.4 19.6744 22.8256L20.0295 23.0431C20.7319 23.4731 21.5084 23.7681 22.3192 23.9129L22.676 23.9766C23.4869 24.1214 24.3208 24.0687 25.107 23.823C25.3822 23.737 25.6497 23.628 25.9065 23.497L26.4291 23.2306C27.5251 22.6719 28.51 21.9178 29.3353 21.0056L29.5782 20.7372C29.8581 20.4278 30.1072 20.0918 30.3219 19.734C30.7075 19.0912 30.9775 18.3858 31.1196 17.6497L31.428 16.0514C31.4482 15.9467 31.4584 15.8404 31.4584 15.7339V14.6684C31.4584 13.9819 30.7609 13.5157 30.1266 13.7782C30.042 13.8132 29.9629 13.86 29.8916 13.9173L28.5497 14.9952C27.4883 15.8478 26.6698 16.9646 26.1763 18.2335Z" fill="#F3A532"/>
</svg>
