<svg width="100" height="100" viewBox="0 0 100 100" fill="none" xmlns="http://www.w3.org/2000/svg">
<rect width="100" height="100" rx="50" fill="#155DFC"/>
<path d="M50.0005 77.8822C49.8208 77.8822 49.6435 77.8402 49.4778 77.7585L48.4862 77.2638C43.3668 74.7018 26.6602 65.1515 26.6602 49.7305L26.6648 37.2565C26.6648 32.7228 29.5558 28.7165 33.8608 27.2908L49.6342 22.0595C49.8722 21.9802 50.1312 21.9802 50.3668 22.0595L66.1378 27.2885C70.4428 28.7165 73.3338 32.7228 73.3338 37.2542L73.3268 49.7282C73.3268 67.2235 56.5922 75.3178 51.4635 77.3828L50.4345 77.7958C50.2945 77.8518 50.1452 77.8798 49.9982 77.8798L50.0005 77.8822ZM50.0005 24.3975L34.5958 29.5052C31.2475 30.6158 29.0005 33.7308 29.0005 37.2565L28.9958 49.7305C28.9958 63.8122 44.7132 72.7698 49.5315 75.1778L50.0542 75.4392L50.5955 75.2222C55.3812 73.2972 70.9958 65.7675 70.9958 49.7328L71.0028 37.2588C71.0028 33.7332 68.7535 30.6182 65.4075 29.5075L50.0005 24.3975Z" fill="white"/>
<path d="M47.6233 57.0016C46.1276 57.0016 44.632 56.4323 43.4933 55.2936L36.3626 48.5153C35.896 48.072 35.8773 47.3323 36.3206 46.8656C36.764 46.4013 37.5013 46.3803 37.9703 46.8236L45.122 53.623C46.508 55.0066 48.727 55.009 50.092 53.644L63.1866 40.9973C63.6533 40.5516 64.393 40.5656 64.8363 41.0276C65.2843 41.4896 65.2726 42.2293 64.8083 42.6773L51.7253 55.31C50.5983 56.437 49.1096 57.004 47.621 57.004L47.6233 57.0016Z" fill="white"/>
</svg>
