<svg width="78" height="78" viewBox="0 0 78 78" fill="none" xmlns="http://www.w3.org/2000/svg">
<rect width="78" height="78" rx="39" fill="#F2F6FF"/>
<path d="M48.6875 27.5H29.3125C26.1079 27.5 23.5 29.9228 23.5 32.9V46.1C23.5 49.0772 26.1079 51.5 29.3125 51.5H48.6875C51.8921 51.5 54.5 49.0772 54.5 46.1V32.9C54.5 29.9228 51.8921 27.5 48.6875 27.5ZM29.3125 28.7H48.6875C50.0877 28.7 51.3264 29.3072 52.1569 30.2396L42.2227 39.47C41.3676 40.2632 40.2116 40.7 38.9974 40.7C37.8168 40.6796 36.6388 40.268 35.7786 39.47L25.8431 30.2396C26.6736 29.3072 27.911 28.7 29.3125 28.7ZM53.2083 46.1C53.2083 48.416 51.1804 50.3 48.6875 50.3H29.3125C26.8196 50.3 24.7917 48.416 24.7917 46.1V32.9C24.7917 32.3276 24.917 31.7828 25.1417 31.2848L34.8654 40.3184C35.9646 41.3396 37.4229 41.9 38.969 41.9C40.5151 41.9 42.0367 41.3396 43.1359 40.3184L52.8596 31.2848C53.0843 31.7828 53.2096 32.3276 53.2096 32.9L53.2083 46.1Z" fill="#155DFC"/>
</svg>
