<svg width="78" height="78" viewBox="0 0 78 78" fill="none" xmlns="http://www.w3.org/2000/svg">
<rect width="78" height="78" rx="39" fill="#F2F6FF"/>
<path d="M39.0005 53.9988L38.1205 53.255C35.368 50.9262 26.3867 42.845 26.3867 36.6137C26.3867 29.6587 32.0455 24 39.0005 24C45.9555 24 51.6142 29.6587 51.6142 36.6137C51.6142 42.845 42.633 50.9262 39.8805 53.255L39.0005 53.9988ZM39.0005 25.25C32.7342 25.25 27.6367 30.3475 27.6367 36.6137C27.6367 42.4537 37.0417 50.705 38.9267 52.3013L39.0005 52.3638L39.0742 52.3013C40.9592 50.7063 50.3642 42.4537 50.3642 36.6137C50.3642 30.3475 45.2667 25.25 39.0005 25.25Z" fill="#155DFC"/>
<path d="M39 41.5C36.2425 41.5 34 39.2575 34 36.5C34 33.7425 36.2425 31.5 39 31.5C41.7575 31.5 44 33.7425 44 36.5C44 39.2575 41.7575 41.5 39 41.5ZM39 32.75C36.9325 32.75 35.25 34.4325 35.25 36.5C35.25 38.5675 36.9325 40.25 39 40.25C41.0675 40.25 42.75 38.5675 42.75 36.5C42.75 34.4325 41.0675 32.75 39 32.75Z" fill="#155DFC"/>
</svg>
