<svg width="78" height="78" viewBox="0 0 78 78" fill="none" xmlns="http://www.w3.org/2000/svg">
<rect width="78" height="78" rx="39" fill="#F2F6FF"/>
<g clip-path="url(#clip0_5279_6523)">
<path d="M26.1621 26.2125L27.5621 24.9875C28.8371 23.7125 30.9996 23.65 32.3746 25.05L34.7121 28.1125C36.0246 29.425 36.0246 31.5625 34.7121 32.8625L32.8496 34.775C34.8746 39.525 38.6121 43.275 43.2121 45.15L45.1246 43.2875C45.7621 42.65 46.5996 42.3 47.4996 42.3C48.3996 42.3 49.2371 42.65 49.8121 43.2375L52.9871 45.6875C54.2996 47 54.2996 49.1375 53.0121 50.4125L51.7371 51.875C50.3621 53.25 48.5121 54.0125 46.4996 54.0125C36.8121 54.0125 23.9746 41.1625 23.9746 31.4875C23.9746 29.4875 24.7371 27.625 26.1371 26.225L26.1621 26.2125ZM46.5246 52.75C48.1996 52.75 49.7371 52.125 50.8496 51.0125L52.1246 49.5375C52.9496 48.7125 52.9496 47.375 52.1871 46.6L49.0121 44.15C48.6121 43.75 48.0871 43.525 47.5121 43.525C46.9371 43.525 46.4121 43.75 46.0121 44.15L43.7996 46.3125C43.6246 46.4875 43.3746 46.5375 43.1371 46.45C37.9246 44.4625 33.6871 40.225 31.5246 34.85C31.4371 34.625 31.4871 34.3625 31.6621 34.175L33.8246 31.9625C34.6496 31.1375 34.6496 29.8 33.7746 28.9125L31.4371 25.85C30.6121 25.025 29.2746 25.025 28.4121 25.875L27.0121 27.1C25.8746 28.2375 25.2496 29.775 25.2496 31.45C25.2496 40.4 37.5746 52.725 46.5246 52.725V52.75Z" fill="#155DFC"/>
</g>
<defs>
<clipPath id="clip0_5279_6523">
<rect width="30" height="30" fill="white" transform="matrix(-1 0 0 1 54 24)"/>
</clipPath>
</defs>
</svg>
