<svg width="24" height="24" viewBox="0 0 24 24" fill="none" xmlns="http://www.w3.org/2000/svg">
<path d="M23.1104 0.850901C22.3914 0.131901 21.3814 -0.156099 20.4024 0.0819014L4.18043 4.3059C2.10043 4.5929 0.493434 6.1049 0.0864344 8.1569C-0.223566 9.7169 0.310434 11.3659 1.52543 12.5809L2.96243 13.9349V18.4969C2.96243 19.1829 3.24043 19.8049 3.68943 20.2569C3.69143 20.2589 3.69243 20.2619 3.69443 20.2649C3.69643 20.2679 3.69943 20.2679 3.70243 20.2699C4.15443 20.7189 4.77643 20.9969 5.46243 20.9969H10.0364L11.4174 22.4729C12.3994 23.4549 13.7184 23.9939 15.0204 23.9939C15.4864 23.9939 15.9504 23.9249 16.3954 23.7829C18.1794 23.2139 19.4394 21.7369 19.6744 19.9839L23.8714 3.5969C24.1154 2.5979 23.8314 1.5729 23.1114 0.851901L23.1104 0.850901ZM2.22143 11.8629C1.25443 10.8949 0.822434 9.5829 1.06643 8.3509C1.38943 6.7239 2.66543 5.5249 4.37543 5.2849L20.6474 1.0529C20.7914 1.0179 20.9374 1.0009 21.0814 1.0009C21.4024 1.0009 21.7144 1.0939 21.9964 1.2559L4.11143 19.1399C4.01743 18.9439 3.96143 18.7279 3.96143 18.4969V13.7189C3.96143 13.5809 3.90443 13.4489 3.80443 13.3549L2.22143 11.8629ZM22.9004 3.3539L18.6924 19.7919C18.4994 21.2149 17.5024 22.3789 16.0894 22.8289C14.7504 23.2549 13.1934 22.8369 12.1334 21.7769L10.6154 20.1549C10.5204 20.0539 10.3884 19.9969 10.2504 19.9969H5.46143C5.23043 19.9969 5.01443 19.9399 4.81843 19.8469L22.7074 1.9579C22.9454 2.3739 23.0194 2.8699 22.9004 3.3539Z" fill="#F6F6F6"/>
</svg>
