<svg width="22" height="22" viewBox="0 0 22 22" fill="none" xmlns="http://www.w3.org/2000/svg">
<path d="M1.5856 1.61104L2.61226 0.712708C3.54726 -0.222292 5.1331 -0.268125 6.14143 0.758542L7.8556 3.00438C8.8181 3.96688 8.8181 5.53438 7.8556 6.48771L6.48976 7.89021C7.97476 11.3735 10.7156 14.1235 14.0889 15.4985L15.4914 14.1327C15.9589 13.6652 16.5731 13.4085 17.2331 13.4085C17.8931 13.4085 18.5073 13.6652 18.9289 14.096L21.2573 15.8927C22.2198 16.8552 22.2198 18.4227 21.2756 19.3577L20.3406 20.4302C19.3323 21.4385 17.9756 21.9977 16.4998 21.9977C9.3956 21.9977 -0.0185719 12.5744 -0.0185719 5.47938C-0.0185719 4.01271 0.540594 2.64688 1.56726 1.62021L1.5856 1.61104ZM16.5181 21.0719C17.7464 21.0719 18.8739 20.6135 19.6898 19.7977L20.6248 18.716C21.2298 18.111 21.2298 17.1302 20.6706 16.5619L18.3423 14.7652C18.0489 14.4719 17.6639 14.3069 17.2423 14.3069C16.8206 14.3069 16.4356 14.4719 16.1423 14.7652L14.5198 16.351C14.3914 16.4794 14.2081 16.516 14.0339 16.4519C10.2114 14.9944 7.10393 11.8869 5.5181 7.94521C5.45393 7.78021 5.49059 7.58771 5.61893 7.45021L7.20476 5.82771C7.80976 5.22271 7.80976 4.24188 7.1681 3.59104L5.45393 1.34521C4.84893 0.740208 3.8681 0.740208 3.2356 1.36354L2.20893 2.26188C1.37476 3.09604 0.91643 4.22354 0.91643 5.45188C0.91643 12.0152 9.95476 21.0535 16.5181 21.0535V21.0719Z" fill="white"/>
</svg>
