<svg width="92" height="92" viewBox="0 0 92 92" fill="none" xmlns="http://www.w3.org/2000/svg">
<g clip-path="url(#clip0_4271_2330)">
<path d="M82.4167 49.8411H67.0833C61.7972 49.8411 57.5 54.1421 57.5 59.4245V67.095C55.8977 65.8913 53.9043 65.1745 51.75 65.1745H42.1667V57.8336C42.1667 55.2921 40.5337 53.0803 38.0995 52.3366L29.831 49.8028L35.7382 26.8411H40.6027C43.2592 26.8411 45.8352 26.063 48.0432 24.5871L56.649 18.8525C57.5268 18.266 57.7683 17.0776 57.1818 16.196C56.5915 15.3105 55.3955 15.0766 54.5253 15.6631L45.9195 21.3978C44.3402 22.452 42.5002 23.0078 40.6027 23.0078H24.7863C21.1983 23.0078 18.0473 25.5531 17.3075 28.9878L14.5015 39.909C13.5547 44.2215 15.6592 48.4956 19.4925 50.4621L16.3032 60.0301C16.0425 60.816 15.3103 61.3411 14.4823 61.3411H1.91283C0.854833 61.3411 0 62.1998 0 63.2578C0 64.3158 0.858667 65.1745 1.91667 65.1745H14.4862C16.9625 65.1745 19.1552 63.5951 19.941 61.2453L23.1035 51.7501L36.9763 56.0051C37.7852 56.2543 38.3333 56.9903 38.3333 57.8375V65.1783H36.4167C31.1343 65.1783 26.8333 69.4793 26.8333 74.7616V78.6448C25.2272 77.4296 23.2492 76.6783 21.0833 76.6783H9.5795C4.29717 76.6745 0 80.9755 0 86.2578V90.0911C0 91.1491 0.858667 92.0078 1.91667 92.0078C2.97467 92.0078 3.83333 91.1491 3.83333 90.0911V86.2578C3.83333 83.0876 6.41317 80.5078 9.58333 80.5078H21.0833C24.2535 80.5078 26.8333 83.0876 26.8333 86.2578V90.0911C26.8333 91.1491 27.692 92.0078 28.75 92.0078C29.808 92.0078 30.6667 91.1491 30.6667 90.0911V74.7578C30.6667 71.5876 33.2465 69.0078 36.4167 69.0078H51.75C54.9202 69.0078 57.5 71.5876 57.5 74.7578V90.0911C57.5 91.1491 58.3587 92.0078 59.4167 92.0078C60.4747 92.0078 61.3333 91.1491 61.3333 90.0911V59.4245C61.3333 56.2543 63.9132 53.6745 67.0833 53.6745H82.4167C85.5868 53.6745 88.1667 56.2543 88.1667 59.4245V90.0911C88.1667 91.1491 89.0253 92.0078 90.0833 92.0078C91.1413 92.0078 92 91.1491 92 90.0911V59.4245C92 54.1421 87.7028 49.8411 82.4167 49.8411ZM18.2275 40.7945L21.0373 29.8695C21.4168 28.1138 22.9923 26.8411 24.7863 26.8411H31.7783L26.1625 48.6758L22.0762 47.4223C19.2587 46.4985 17.6065 43.6196 18.2275 40.7945ZM32.5795 19.1745C37.8618 19.1745 42.1628 14.8735 42.1628 9.59115C42.1628 4.30881 37.8657 0.0078125 32.5795 0.0078125C27.2933 0.0078125 22.9962 4.30881 22.9962 9.59115C22.9962 14.8735 27.2972 19.1745 32.5795 19.1745ZM32.5795 3.84115C35.7497 3.84115 38.3295 6.42098 38.3295 9.59115C38.3295 12.7613 35.7497 15.3411 32.5795 15.3411C29.4093 15.3411 26.8295 12.7613 26.8295 9.59115C26.8295 6.42098 29.4093 3.84115 32.5795 3.84115ZM67.0795 42.1745C68.1375 42.1745 68.9962 41.3158 68.9962 40.2578V22.9695L86.0085 15.1265C87.3387 14.4058 88.1628 13.0181 88.1628 11.5078C88.1628 9.99748 87.3348 8.60981 85.9357 7.85081L70.3225 0.203312C70.0618 0.0768125 69.2913 0.0078125 69 0.0078125C67.3325 0.0078125 65.1667 1.18081 65.1667 4.32031V40.2578C65.1667 41.3158 66.0215 42.1745 67.0795 42.1745ZM68.9962 4.21298C68.9962 4.02898 69.184 3.89865 69.3872 3.99831L84.2528 11.2931C84.2528 11.2931 84.6438 11.5346 84.2222 11.7301L68.9962 18.7988V4.21681V4.21298Z" fill="#155DFC"/>
</g>
<defs>
<clipPath id="clip0_4271_2330">
<rect width="92" height="92" fill="white"/>
</clipPath>
</defs>
</svg>
