<svg width="92" height="92" viewBox="0 0 92 92" fill="none" xmlns="http://www.w3.org/2000/svg">
<g clip-path="url(#clip0_4271_2335)">
<path d="M92 32.5833C92 27.301 87.7028 23 82.4167 23C77.1305 23 72.8333 27.301 72.8333 32.5833C72.8333 37.2102 76.13 41.0818 80.5 41.975V61.3333C80.5 76.13 68.4595 88.1667 53.6667 88.1667C38.8738 88.1667 26.8333 76.13 26.8333 61.3333V57.4272C39.6788 56.4458 49.8333 45.678 49.8333 32.5833V9.58333C49.8333 4.301 45.5362 0 40.25 0H30.6667V3.83333H40.25C43.4202 3.83333 46 6.41317 46 9.58333V32.5833C46 44.2098 36.5393 53.6667 24.9167 53.6667C13.294 53.6667 3.83333 44.2098 3.83333 32.5833V9.58333C3.83333 6.41317 6.41317 3.83333 9.58333 3.83333H19.1667V0H9.58333C4.29717 0 0 4.301 0 9.58333V32.5833C0 45.678 10.1545 56.4458 23 57.4272V61.3333C23 78.2422 36.7578 92 53.6667 92C70.5755 92 84.3333 78.2422 84.3333 61.3333V41.975C88.7033 41.0857 92 37.214 92 32.5833ZM82.4167 38.3333C79.2465 38.3333 76.6667 35.7535 76.6667 32.5833C76.6667 29.4132 79.2465 26.8333 82.4167 26.8333C85.5868 26.8333 88.1667 29.4132 88.1667 32.5833C88.1667 35.7535 85.5868 38.3333 82.4167 38.3333Z" fill="#155DFC"/>
</g>
<defs>
<clipPath id="clip0_4271_2335">
<rect width="92" height="92" fill="white"/>
</clipPath>
</defs>
</svg>
