<svg width="92" height="92" viewBox="0 0 92 92" fill="none" xmlns="http://www.w3.org/2000/svg">
<g clip-path="url(#clip0_4336_2831)">
<path d="M28.75 49.8333C38.2605 49.8333 46 42.0938 46 32.5833C46 23.0728 38.2605 15.3333 28.75 15.3333C19.2395 15.3333 11.5 23.0728 11.5 32.5833C11.5 42.0938 19.2395 49.8333 28.75 49.8333ZM28.75 19.1667C36.1483 19.1667 42.1667 25.185 42.1667 32.5833C42.1667 39.9817 36.1483 46 28.75 46C21.3517 46 15.3333 39.9817 15.3333 32.5833C15.3333 25.185 21.3517 19.1667 28.75 19.1667ZM57.5 74.75V92H53.6667V74.75C53.6667 67.3517 47.6483 61.3333 40.25 61.3333H17.25C9.85167 61.3333 3.83333 67.3517 3.83333 74.75V92H0V74.75C0 65.2395 7.7395 57.5 17.25 57.5H40.25C49.7605 57.5 57.5 65.2395 57.5 74.75ZM67.0833 34.5C76.5938 34.5 84.3333 26.7605 84.3333 17.25C84.3333 7.7395 76.5938 0 67.0833 0C57.5728 0 49.8333 7.7395 49.8333 17.25C49.8333 26.7605 57.5728 34.5 67.0833 34.5ZM67.0833 3.83333C74.4817 3.83333 80.5 9.85167 80.5 17.25C80.5 24.6483 74.4817 30.6667 67.0833 30.6667C59.685 30.6667 53.6667 24.6483 53.6667 17.25C53.6667 9.85167 59.685 3.83333 67.0833 3.83333ZM92 59.4167V76.6667H88.1667V59.4167C88.1667 52.0183 82.1483 46 74.75 46H51.75C51.0063 46 50.2895 46.1035 49.5803 46.2185C50.4198 44.942 51.1482 43.5888 51.7462 42.1667C51.7462 42.1667 51.7462 42.1667 51.7538 42.1667H74.7538C84.2643 42.1667 92 49.9062 92 59.4167Z" fill="#155DFC"/>
</g>
<defs>
<clipPath id="clip0_4336_2831">
<rect width="92" height="92" fill="white"/>
</clipPath>
</defs>
</svg>
